# xmcd CD database file
#
# Track frame offsets:
#	150
#	15759
#	29869
#
# Disc length: 659 seconds
#
# Revision: 0
# Processed by: cddbd v1.5.1PL0 Copyright (c) Steve Scherf et al.
# Submitted via: CDex 1.51
#
DISCID=19029103
DTITLE=UNI46 - Punk is Attitude
DYEAR=2004
DGENRE=Rock
TTITLE0=Magic Shoes
TTITLE1=Brother
TTITLE2=Warm Heart
EXTD=YEAR: 2004
EXTT0=
EXTT1=
EXTT2=
PLAYORDER=
